{
    "asset": {
        "copyright": "(C)2023 post",
        "generator": "maya2glTF v1.4.0 3d7ba8eaf03e",
        "version": "2.0"
    },
    "scenes": [
        {
            "nodes": [
                0
            ]
        }
    ],
    "scene": 0,
    "nodes": [
        {
            "name": "group1",
            "children": [
                5,
                3,
                1
            ]
        },
        {
            "name": "rice_GEO",
            "children": [
                2
            ],
            "translation": [
                0.0,
                0.0,
                -0.00000381500012736069
            ]
        },
        {
            "name": "rice_GEO:PIV",
            "mesh": 0,
            "translation": [
                0.0,
                0.0,
                0.00000381500012736069
            ]
        },
        {
            "name": "drumbstick_GEO",
            "children": [
                4
            ],
            "translation": [
                0.0,
                0.0,
                0.009331703186035157
            ]
        },
        {
            "name": "drumbstick_GEO:PIV",
            "mesh": 1,
            "translation": [
                0.0,
                0.0,
                -0.009331703186035157
            ]
        },
        {
            "name": "broccoli_GEO",
            "children": [
                6
            ],
            "translation": [
                0.0,
                0.0,
                0.5096607208251953
            ],
            "rotation": [
                0.0,
                -0.5141317248344421,
                0.0,
                0.8577111959457398
            ]
        },
        {
            "name": "broccoli_GEO:PIV",
            "mesh": 2,
            "translation": [
                0.0,
                0.0,
                -0.5096607208251953
            ]
        }
    ],
    "meshes": [
        {
            "name": "rice_GEOShape",
            "extras": {
                "targetNames": []
            },
            "primitives": [
                {
                    "attributes": {
                        "NORMAL": 1,
                        "POSITION": 2,
                        "TANGENT": 3,
                        "TEXCOORD_0": 4
                    },
                    "indices": 0,
                    "mode": 4,
                    "material": 0
                }
            ]
        },
        {
            "name": "drumbstick_GEOShape",
            "extras": {
                "targetNames": []
            },
            "primitives": [
                {
                    "attributes": {
                        "NORMAL": 6,
                        "POSITION": 7,
                        "TANGENT": 8,
                        "TEXCOORD_0": 9
                    },
                    "indices": 5,
                    "mode": 4,
                    "material": 0
                }
            ]
        },
        {
            "name": "broccoli_GEOShape",
            "extras": {
                "targetNames": []
            },
            "primitives": [
                {
                    "attributes": {
                        "NORMAL": 11,
                        "POSITION": 12,
                        "TANGENT": 13,
                        "TEXCOORD_0": 14
                    },
                    "indices": 10,
                    "mode": 4,
                    "material": 0
                }
            ]
        }
    ],
    "materials": [
        {
            "name": "foods_MAT",
            "pbrMetallicRoughness": {
                "baseColorFactor": [
                    0.800000011920929,
                    0.800000011920929,
                    0.800000011920929,
                    1.0
                ],
                "baseColorTexture": {
                    "index": 0
                },
                "metallicFactor": 0.0,
                "roughnessFactor": 1.0
            }
        }
    ],
    "textures": [
        {
            "sampler": 0,
            "source": 0
        }
    ],
    "images": [
        {
            "uri": "foods_colour.png"
        }
    ],
    "samplers": [
        {
            "magFilter": 9729,
            "minFilter": 9987,
            "wrapS": 10497,
            "wrapT": 10497
        }
    ],
    "accessors": [
        {
            "name": "rice_GEOShape#0/indices",
            "bufferView": 0,
            "byteOffset": 0,
            "componentType": 5123,
            "count": 1680,
            "max": [
                372
            ],
            "min": [
                0
            ],
            "type": "SCALAR"
        },
        {
            "name": "rice_GEOShape#0/vertices/NORMAL",
            "bufferView": 1,
            "byteOffset": 0,
            "componentType": 5126,
            "count": 373,
            "max": [
                0.9983983039855956,
                0.9983657598495485,
                0.9983982443809508
            ],
            "min": [
                -0.9983983039855956,
                -1.0,
                -0.9983982443809508
            ],
            "type": "VEC3"
        },
        {
            "name": "rice_GEOShape#0/vertices/POSITION",
            "bufferView": 1,
            "byteOffset": 4476,
            "componentType": 5126,
            "count": 373,
            "max": [
                23.160964965820314,
                34.403804779052737,
                23.16096305847168
            ],
            "min": [
                -23.16096878051758,
                -0.00001716599945211783,
                -23.16097068786621
            ],
            "type": "VEC3"
        },
        {
            "name": "rice_GEOShape#0/vertices/TANGENT",
            "bufferView": 2,
            "byteOffset": 0,
            "componentType": 5126,
            "count": 373,
            "max": [
                0.9999988675117492,
                0.973596453666687,
                0.999996304512024,
                1.0
            ],
            "min": [
                -1.0,
                -0.9639654755592346,
                -0.9999999403953552,
                1.0
            ],
            "type": "VEC4"
        },
        {
            "name": "rice_GEOShape#0/vertices/TEXCOORD_0",
            "bufferView": 3,
            "byteOffset": 0,
            "componentType": 5126,
            "count": 373,
            "max": [
                0.9969142079353333,
                0.9963436722755432
            ],
            "min": [
                0.211750864982605,
                0.009133577346801758
            ],
            "type": "VEC2"
        },
        {
            "name": "drumbstick_GEOShape#0/indices",
            "bufferView": 0,
            "byteOffset": 3360,
            "componentType": 5123,
            "count": 1092,
            "max": [
                229
            ],
            "min": [
                0
            ],
            "type": "SCALAR"
        },
        {
            "name": "drumbstick_GEOShape#0/vertices/NORMAL",
            "bufferView": 1,
            "byteOffset": 8952,
            "componentType": 5126,
            "count": 230,
            "max": [
                0.9978789687156676,
                0.9950823783874512,
                0.999579906463623
            ],
            "min": [
                -0.9998512268066406,
                -0.9920073747634888,
                -0.9998619556427002
            ],
            "type": "VEC3"
        },
        {
            "name": "drumbstick_GEOShape#0/vertices/POSITION",
            "bufferView": 1,
            "byteOffset": 11712,
            "componentType": 5126,
            "count": 230,
            "max": [
                14.563557624816897,
                56.94171142578125,
                14.369499206542969
            ],
            "min": [
                -14.563557624816897,
                0.0,
                -14.3508358001709
            ],
            "type": "VEC3"
        },
        {
            "name": "drumbstick_GEOShape#0/vertices/TANGENT",
            "bufferView": 2,
            "byteOffset": 5968,
            "componentType": 5126,
            "count": 230,
            "max": [
                0.99774569272995,
                0.7815160751342773,
                0.1054152175784111,
                1.0
            ],
            "min": [
                -0.99920654296875,
                -0.6337846517562866,
                -0.9999598264694214,
                1.0
            ],
            "type": "VEC4"
        },
        {
            "name": "drumbstick_GEOShape#0/vertices/TEXCOORD_0",
            "bufferView": 3,
            "byteOffset": 2984,
            "componentType": 5126,
            "count": 230,
            "max": [
                0.2800905108451843,
                0.9861325025558472
            ],
            "min": [
                0.012299597263336182,
                0.21411633491516114
            ],
            "type": "VEC2"
        },
        {
            "name": "broccoli_GEOShape#0/indices",
            "bufferView": 0,
            "byteOffset": 5544,
            "componentType": 5123,
            "count": 2820,
            "max": [
                1915
            ],
            "min": [
                0
            ],
            "type": "SCALAR"
        },
        {
            "name": "broccoli_GEOShape#0/vertices/NORMAL",
            "bufferView": 1,
            "byteOffset": 14472,
            "componentType": 5126,
            "count": 1916,
            "max": [
                0.9983105659484864,
                0.997340977191925,
                0.9930952787399292
            ],
            "min": [
                -0.9852961897850036,
                -0.99999737739563,
                -0.9796621203422546
            ],
            "type": "VEC3"
        },
        {
            "name": "broccoli_GEOShape#0/vertices/POSITION",
            "bufferView": 1,
            "byteOffset": 37464,
            "componentType": 5126,
            "count": 1916,
            "max": [
                27.312599182128908,
                56.03984451293945,
                28.91522789001465
            ],
            "min": [
                -27.312599182128908,
                0.0,
                -27.89590644836426
            ],
            "type": "VEC3"
        },
        {
            "name": "broccoli_GEOShape#0/vertices/TANGENT",
            "bufferView": 2,
            "byteOffset": 9648,
            "componentType": 5126,
            "count": 1916,
            "max": [
                0.990780770778656,
                0.992785632610321,
                0.996517539024353,
                1.0
            ],
            "min": [
                -0.99958598613739,
                -0.9986214637756348,
                -0.991236448287964,
                1.0
            ],
            "type": "VEC4"
        },
        {
            "name": "broccoli_GEOShape#0/vertices/TEXCOORD_0",
            "bufferView": 3,
            "byteOffset": 4824,
            "componentType": 5126,
            "count": 1916,
            "max": [
                0.9988099932670592,
                0.7498730421066284
            ],
            "min": [
                0.015630999580025674,
                0.006456971168518066
            ],
            "type": "VEC2"
        }
    ],
    "bufferViews": [
        {
            "name": "foods/data/indices-2",
            "buffer": 0,
            "byteOffset": 120912,
            "byteLength": 11184,
            "target": 34963
        },
        {
            "name": "foods/data/vertices-12",
            "buffer": 0,
            "byteOffset": 40304,
            "byteLength": 60456,
            "byteStride": 12,
            "target": 34962
        },
        {
            "name": "foods/data/vertices-16",
            "buffer": 0,
            "byteOffset": 0,
            "byteLength": 40304,
            "byteStride": 16,
            "target": 34962
        },
        {
            "name": "foods/data/vertices-8",
            "buffer": 0,
            "byteOffset": 100760,
            "byteLength": 20152,
            "byteStride": 8,
            "target": 34962
        }
    ],
    "buffers": [
        {
            "name": "foods/data",
            "byteLength": 132096,
            "uri": "foods0.bin"
        }
    ]
}
