{
    "asset": {
        "copyright": "(C)2023 sprou",
        "generator": "maya2glTF v1.4.0 3d7ba8eaf03e",
        "version": "2.0"
    },
    "scenes": [
        {
            "nodes": [
                0
            ]
        }
    ],
    "scene": 0,
    "nodes": [
        {
            "name": "wall_GRP",
            "children": [
                7,
                5,
                3,
                1
            ]
        },
        {
            "name": "wall_rt_GEO",
            "children": [
                2
            ],
            "translation": [
                0.0,
                -98.72186279296877,
                0.0
            ]
        },
        {
            "name": "wall_rt_GEO:PIV",
            "mesh": 0,
            "translation": [
                0.0,
                98.72186279296877,
                0.0
            ]
        },
        {
            "name": "wall_rt_GEO1",
            "children": [
                4
            ],
            "translation": [
                0.0,
                -173.257568359375,
                0.0
            ]
        },
        {
            "name": "wall_rt_GEO1:PIV",
            "mesh": 1,
            "translation": [
                0.0,
                173.257568359375,
                0.0
            ]
        },
        {
            "name": "wall_lf_GEO",
            "children": [
                6
            ],
            "translation": [
                0.0,
                -457.48919677734377,
                0.0
            ]
        },
        {
            "name": "wall_lf_GEO:PIV",
            "mesh": 2,
            "translation": [
                0.0,
                457.48919677734377,
                0.0
            ]
        },
        {
            "name": "wall_lf_GEO1",
            "children": [
                8
            ],
            "translation": [
                0.0,
                -159.28652954101566,
                0.0
            ]
        },
        {
            "name": "wall_lf_GEO1:PIV",
            "mesh": 3,
            "translation": [
                0.0,
                159.28652954101566,
                0.0
            ]
        }
    ],
    "meshes": [
        {
            "name": "wall_rt_GEOShape",
            "extras": {
                "targetNames": []
            },
            "primitives": [
                {
                    "attributes": {
                        "NORMAL": 1,
                        "POSITION": 2,
                        "TANGENT": 3,
                        "TEXCOORD_0": 4
                    },
                    "indices": 0,
                    "mode": 4,
                    "material": 0
                }
            ]
        },
        {
            "name": "wall_rt_GEO1Shape",
            "extras": {
                "targetNames": []
            },
            "primitives": [
                {
                    "attributes": {
                        "NORMAL": 6,
                        "POSITION": 7,
                        "TANGENT": 8,
                        "TEXCOORD_0": 9
                    },
                    "indices": 5,
                    "mode": 4,
                    "material": 0
                }
            ]
        },
        {
            "name": "wall_lf_GEOShape",
            "extras": {
                "targetNames": []
            },
            "primitives": [
                {
                    "attributes": {
                        "NORMAL": 11,
                        "POSITION": 12,
                        "TANGENT": 13,
                        "TEXCOORD_0": 14
                    },
                    "indices": 10,
                    "mode": 4,
                    "material": 0
                }
            ]
        },
        {
            "name": "wall_lf_GEO1Shape",
            "extras": {
                "targetNames": []
            },
            "primitives": [
                {
                    "attributes": {
                        "NORMAL": 16,
                        "POSITION": 17,
                        "TANGENT": 18,
                        "TEXCOORD_0": 19
                    },
                    "indices": 15,
                    "mode": 4,
                    "material": 0
                }
            ]
        }
    ],
    "materials": [
        {
            "name": "wallrun_MAT",
            "pbrMetallicRoughness": {
                "baseColorFactor": [
                    0.800000011920929,
                    0.800000011920929,
                    0.800000011920929,
                    1.0
                ],
                "baseColorTexture": {
                    "index": 0
                },
                "metallicFactor": 0.0,
                "roughnessFactor": 1.0
            }
        }
    ],
    "textures": [
        {
            "sampler": 0,
            "source": 0
        }
    ],
    "images": [
        {
            "uri": "stg3_wallrun.png"
        }
    ],
    "samplers": [
        {
            "magFilter": 9729,
            "minFilter": 9987,
            "wrapS": 10497,
            "wrapT": 10497
        }
    ],
    "accessors": [
        {
            "name": "wall_rt_GEOShape#0/indices",
            "bufferView": 0,
            "byteOffset": 0,
            "componentType": 5123,
            "count": 492,
            "max": [
                216
            ],
            "min": [
                0
            ],
            "type": "SCALAR"
        },
        {
            "name": "wall_rt_GEOShape#0/vertices/NORMAL",
            "bufferView": 1,
            "byteOffset": 0,
            "componentType": 5126,
            "count": 217,
            "max": [
                0.999745547771454,
                0.9946751594543456,
                0.9989013075828552
            ],
            "min": [
                -0.9997833371162416,
                -0.4940310716629029,
                -0.999228060245514
            ],
            "type": "VEC3"
        },
        {
            "name": "wall_rt_GEOShape#0/vertices/POSITION",
            "bufferView": 1,
            "byteOffset": 2604,
            "componentType": 5126,
            "count": 217,
            "max": [
                720.9267578125,
                1195.976806640625,
                1346.4344482421876
            ],
            "min": [
                -733.7327880859375,
                -1393.4205322265626,
                -1312.149658203125
            ],
            "type": "VEC3"
        },
        {
            "name": "wall_rt_GEOShape#0/vertices/TANGENT",
            "bufferView": 2,
            "byteOffset": 0,
            "componentType": 5126,
            "count": 217,
            "max": [
                0.9955540299415588,
                0.9998724460601808,
                0.6415894627571106,
                1.0
            ],
            "min": [
                -0.9928028583526612,
                -0.09413105994462968,
                -0.5687751770019531,
                1.0
            ],
            "type": "VEC4"
        },
        {
            "name": "wall_rt_GEOShape#0/vertices/TEXCOORD_0",
            "bufferView": 3,
            "byteOffset": 0,
            "componentType": 5126,
            "count": 217,
            "max": [
                0.9134303331375122,
                1.0
            ],
            "min": [
                0.0,
                0.2167024612426758
            ],
            "type": "VEC2"
        },
        {
            "name": "wall_rt_GEO1Shape#0/indices",
            "bufferView": 0,
            "byteOffset": 984,
            "componentType": 5123,
            "count": 642,
            "max": [
                286
            ],
            "min": [
                0
            ],
            "type": "SCALAR"
        },
        {
            "name": "wall_rt_GEO1Shape#0/vertices/NORMAL",
            "bufferView": 1,
            "byteOffset": 5208,
            "componentType": 5126,
            "count": 287,
            "max": [
                0.9991909861564636,
                0.9984649419784546,
                0.997787356376648
            ],
            "min": [
                -0.9993221759796144,
                -1.0,
                -0.9890618324279784
            ],
            "type": "VEC3"
        },
        {
            "name": "wall_rt_GEO1Shape#0/vertices/POSITION",
            "bufferView": 1,
            "byteOffset": 8652,
            "componentType": 5126,
            "count": 287,
            "max": [
                590.9375,
                932.3583984375,
                1003.84228515625
            ],
            "min": [
                -590.9373779296875,
                -1278.87353515625,
                -1003.842041015625
            ],
            "type": "VEC3"
        },
        {
            "name": "wall_rt_GEO1Shape#0/vertices/TANGENT",
            "bufferView": 2,
            "byteOffset": 3472,
            "componentType": 5126,
            "count": 287,
            "max": [
                0.990372121334076,
                0.7391959428787231,
                0.9379917979240418,
                1.0
            ],
            "min": [
                -0.9938535094261168,
                -0.996881663799286,
                -0.9999545216560364,
                1.0
            ],
            "type": "VEC4"
        },
        {
            "name": "wall_rt_GEO1Shape#0/vertices/TEXCOORD_0",
            "bufferView": 3,
            "byteOffset": 1736,
            "componentType": 5126,
            "count": 287,
            "max": [
                0.9971204996109008,
                0.8528134226799011
            ],
            "min": [
                0.581943690776825,
                0.022059977054595948
            ],
            "type": "VEC2"
        },
        {
            "name": "wall_lf_GEOShape#0/indices",
            "bufferView": 0,
            "byteOffset": 2268,
            "componentType": 5123,
            "count": 420,
            "max": [
                194
            ],
            "min": [
                0
            ],
            "type": "SCALAR"
        },
        {
            "name": "wall_lf_GEOShape#0/vertices/NORMAL",
            "bufferView": 1,
            "byteOffset": 12096,
            "componentType": 5126,
            "count": 195,
            "max": [
                0.999307096004486,
                0.9940932393074036,
                0.9990334510803224
            ],
            "min": [
                -0.9993489980697632,
                -0.49402907490730288,
                -0.9995009303092957
            ],
            "type": "VEC3"
        },
        {
            "name": "wall_lf_GEOShape#0/vertices/POSITION",
            "bufferView": 1,
            "byteOffset": 14436,
            "componentType": 5126,
            "count": 195,
            "max": [
                673.7028198242188,
                697.8037109375,
                699.36865234375
            ],
            "min": [
                -673.702880859375,
                -1612.7821044921876,
                -699.36865234375
            ],
            "type": "VEC3"
        },
        {
            "name": "wall_lf_GEOShape#0/vertices/TANGENT",
            "bufferView": 2,
            "byteOffset": 8064,
            "componentType": 5126,
            "count": 195,
            "max": [
                0.9931330680847168,
                0.9998806118965148,
                0.5759194493293762,
                1.0
            ],
            "min": [
                -0.992112398147583,
                -0.1085200235247612,
                -0.6574463248252869,
                1.0
            ],
            "type": "VEC4"
        },
        {
            "name": "wall_lf_GEOShape#0/vertices/TEXCOORD_0",
            "bufferView": 3,
            "byteOffset": 4032,
            "componentType": 5126,
            "count": 195,
            "max": [
                0.8033328652381897,
                1.0
            ],
            "min": [
                0.002477302914485336,
                0.001864194986410439
            ],
            "type": "VEC2"
        },
        {
            "name": "wall_lf_GEO1Shape#0/indices",
            "bufferView": 0,
            "byteOffset": 3108,
            "componentType": 5123,
            "count": 753,
            "max": [
                323
            ],
            "min": [
                0
            ],
            "type": "SCALAR"
        },
        {
            "name": "wall_lf_GEO1Shape#0/vertices/NORMAL",
            "bufferView": 1,
            "byteOffset": 16776,
            "componentType": 5126,
            "count": 324,
            "max": [
                0.9983030557632446,
                0.9994199872016908,
                0.9880465865135192
            ],
            "min": [
                -0.9997775554656982,
                -0.9995240569114684,
                -0.9969948530197144
            ],
            "type": "VEC3"
        },
        {
            "name": "wall_lf_GEO1Shape#0/vertices/POSITION",
            "bufferView": 1,
            "byteOffset": 20664,
            "componentType": 5126,
            "count": 324,
            "max": [
                613.3377685546875,
                929.2329711914064,
                1481.30126953125
            ],
            "min": [
                -613.337890625,
                -1247.8060302734376,
                -1481.30126953125
            ],
            "type": "VEC3"
        },
        {
            "name": "wall_lf_GEO1Shape#0/vertices/TANGENT",
            "bufferView": 2,
            "byteOffset": 11184,
            "componentType": 5126,
            "count": 324,
            "max": [
                0.9928951263427734,
                0.7568485736846924,
                0.9999799728393556,
                1.0
            ],
            "min": [
                -0.9930446743965148,
                -0.9965721368789672,
                -0.9301174283027648,
                1.0
            ],
            "type": "VEC4"
        },
        {
            "name": "wall_lf_GEO1Shape#0/vertices/TEXCOORD_0",
            "bufferView": 3,
            "byteOffset": 5592,
            "componentType": 5126,
            "count": 324,
            "max": [
                0.997367262840271,
                1.0
            ],
            "min": [
                0.004331937991082668,
                0.10634040832519533
            ],
            "type": "VEC2"
        }
    ],
    "bufferViews": [
        {
            "name": "stg3_wallrun/data/indices-2",
            "buffer": 0,
            "byteOffset": 49104,
            "byteLength": 4614,
            "target": 34963
        },
        {
            "name": "stg3_wallrun/data/vertices-12",
            "buffer": 0,
            "byteOffset": 16368,
            "byteLength": 24552,
            "byteStride": 12,
            "target": 34962
        },
        {
            "name": "stg3_wallrun/data/vertices-16",
            "buffer": 0,
            "byteOffset": 0,
            "byteLength": 16368,
            "byteStride": 16,
            "target": 34962
        },
        {
            "name": "stg3_wallrun/data/vertices-8",
            "buffer": 0,
            "byteOffset": 40920,
            "byteLength": 8184,
            "byteStride": 8,
            "target": 34962
        }
    ],
    "buffers": [
        {
            "name": "stg3_wallrun/data",
            "byteLength": 53718,
            "uri": "stg3_wallrun0.bin"
        }
    ]
}
