{
    "asset": {
        "copyright": "(C)2023 post",
        "generator": "maya2glTF v1.4.0 3d7ba8eaf03e",
        "version": "2.0"
    },
    "scenes": [
        {
            "nodes": [
                4,
                2,
                0
            ]
        }
    ],
    "scene": 0,
    "nodes": [
        {
            "name": "stg3_pit_GEO_low",
            "children": [
                1
            ],
            "translation": [
                0.0,
                8.875175476074219,
                0.00024414100334979594
            ]
        },
        {
            "name": "stg3_pit_GEO_low:PIV",
            "mesh": 0,
            "translation": [
                0.0,
                -8.875175476074219,
                -0.00024414100334979594
            ]
        },
        {
            "name": "stg2_pit_GEO_low",
            "children": [
                3
            ],
            "translation": [
                0.0,
                8.875175476074219,
                0.00024414100334979594
            ]
        },
        {
            "name": "stg2_pit_GEO_low:PIV",
            "mesh": 1,
            "translation": [
                0.0,
                -8.875175476074219,
                -0.00024414100334979594
            ]
        },
        {
            "name": "stg1_pit_GEO_low",
            "children": [
                5
            ],
            "translation": [
                0.0,
                8.875175476074219,
                0.00024414100334979594
            ]
        },
        {
            "name": "stg1_pit_GEO_low:PIV",
            "mesh": 2,
            "translation": [
                0.0,
                -8.875175476074219,
                -0.00024414100334979594
            ]
        }
    ],
    "meshes": [
        {
            "name": "stg3_pit_GEO_lowShape",
            "extras": {
                "targetNames": []
            },
            "primitives": [
                {
                    "attributes": {
                        "NORMAL": 1,
                        "POSITION": 2,
                        "TANGENT": 3,
                        "TEXCOORD_0": 4
                    },
                    "indices": 0,
                    "mode": 4,
                    "material": 0
                }
            ]
        },
        {
            "name": "stg2_pit_GEO_lowShape",
            "extras": {
                "targetNames": []
            },
            "primitives": [
                {
                    "attributes": {
                        "NORMAL": 6,
                        "POSITION": 7,
                        "TANGENT": 8,
                        "TEXCOORD_0": 9
                    },
                    "indices": 5,
                    "mode": 4,
                    "material": 0
                }
            ]
        },
        {
            "name": "stg1_pit_GEO_lowShape",
            "extras": {
                "targetNames": []
            },
            "primitives": [
                {
                    "attributes": {
                        "NORMAL": 11,
                        "POSITION": 12,
                        "TANGENT": 13,
                        "TEXCOORD_0": 14
                    },
                    "indices": 10,
                    "mode": 4,
                    "material": 0
                }
            ]
        }
    ],
    "materials": [
        {
            "name": "pit",
            "pbrMetallicRoughness": {
                "baseColorFactor": [
                    0.800000011920929,
                    0.800000011920929,
                    0.800000011920929,
                    1.0
                ],
                "baseColorTexture": {
                    "index": 0
                },
                "metallicFactor": 0.0,
                "roughnessFactor": 1.0
            }
        }
    ],
    "textures": [
        {
            "sampler": 0,
            "source": 0
        }
    ],
    "images": [
        {
            "uri": "pit_colour.png"
        }
    ],
    "samplers": [
        {
            "magFilter": 9729,
            "minFilter": 9987,
            "wrapS": 10497,
            "wrapT": 10497
        }
    ],
    "accessors": [
        {
            "name": "stg3_pit_GEO_lowShape#0/indices",
            "bufferView": 0,
            "byteOffset": 0,
            "componentType": 5123,
            "count": 876,
            "max": [
                268
            ],
            "min": [
                0
            ],
            "type": "SCALAR"
        },
        {
            "name": "stg3_pit_GEO_lowShape#0/vertices/NORMAL",
            "bufferView": 1,
            "byteOffset": 0,
            "componentType": 5126,
            "count": 269,
            "max": [
                0.9869397282600404,
                1.0,
                0.9487484693527222
            ],
            "min": [
                -0.9416434168815612,
                -0.974303424358368,
                -0.9257053136825562
            ],
            "type": "VEC3"
        },
        {
            "name": "stg3_pit_GEO_lowShape#0/vertices/POSITION",
            "bufferView": 1,
            "byteOffset": 3228,
            "componentType": 5126,
            "count": 269,
            "max": [
                321.3428649902344,
                33.68754577636719,
                242.6552734375
            ],
            "min": [
                -321.3428649902344,
                -15.93719482421875,
                -242.65478515625
            ],
            "type": "VEC3"
        },
        {
            "name": "stg3_pit_GEO_lowShape#0/vertices/TANGENT",
            "bufferView": 2,
            "byteOffset": 0,
            "componentType": 5126,
            "count": 269,
            "max": [
                0.999922215938568,
                0.8359302282333374,
                0.9991133213043212,
                1.0
            ],
            "min": [
                -0.9998302459716796,
                -0.7292720675468445,
                -0.9998587369918824,
                1.0
            ],
            "type": "VEC4"
        },
        {
            "name": "stg3_pit_GEO_lowShape#0/vertices/TEXCOORD_0",
            "bufferView": 3,
            "byteOffset": 0,
            "componentType": 5126,
            "count": 269,
            "max": [
                0.9932857751846314,
                0.998170018196106
            ],
            "min": [
                0.003185034031048417,
                0.09963124990463256
            ],
            "type": "VEC2"
        },
        {
            "name": "stg2_pit_GEO_lowShape#0/indices",
            "bufferView": 0,
            "byteOffset": 1752,
            "componentType": 5123,
            "count": 876,
            "max": [
                268
            ],
            "min": [
                0
            ],
            "type": "SCALAR"
        },
        {
            "name": "stg2_pit_GEO_lowShape#0/vertices/NORMAL",
            "bufferView": 1,
            "byteOffset": 6456,
            "componentType": 5126,
            "count": 269,
            "max": [
                0.9869397282600404,
                1.0,
                0.9487484693527222
            ],
            "min": [
                -0.9416434168815612,
                -0.974303424358368,
                -0.9257053136825562
            ],
            "type": "VEC3"
        },
        {
            "name": "stg2_pit_GEO_lowShape#0/vertices/POSITION",
            "bufferView": 1,
            "byteOffset": 9684,
            "componentType": 5126,
            "count": 269,
            "max": [
                321.3428649902344,
                33.68754577636719,
                242.6552734375
            ],
            "min": [
                -321.3428649902344,
                -15.93719482421875,
                -242.65478515625
            ],
            "type": "VEC3"
        },
        {
            "name": "stg2_pit_GEO_lowShape#0/vertices/TANGENT",
            "bufferView": 2,
            "byteOffset": 4304,
            "componentType": 5126,
            "count": 269,
            "max": [
                0.9999229907989502,
                0.965870440006256,
                0.9984329342842102,
                1.0
            ],
            "min": [
                -0.9998302459716796,
                -0.7369131445884705,
                -0.9997111558914184,
                1.0
            ],
            "type": "VEC4"
        },
        {
            "name": "stg2_pit_GEO_lowShape#0/vertices/TEXCOORD_0",
            "bufferView": 3,
            "byteOffset": 2152,
            "componentType": 5126,
            "count": 269,
            "max": [
                0.9962813854217528,
                0.7277539968490601
            ],
            "min": [
                0.005328170955181122,
                0.0031852719839662319
            ],
            "type": "VEC2"
        },
        {
            "name": "stg1_pit_GEO_lowShape#0/indices",
            "bufferView": 0,
            "byteOffset": 3504,
            "componentType": 5123,
            "count": 876,
            "max": [
                268
            ],
            "min": [
                0
            ],
            "type": "SCALAR"
        },
        {
            "name": "stg1_pit_GEO_lowShape#0/vertices/NORMAL",
            "bufferView": 1,
            "byteOffset": 12912,
            "componentType": 5126,
            "count": 269,
            "max": [
                0.9869397282600404,
                1.0,
                0.9487484693527222
            ],
            "min": [
                -0.9416434168815612,
                -0.974303424358368,
                -0.9257053136825562
            ],
            "type": "VEC3"
        },
        {
            "name": "stg1_pit_GEO_lowShape#0/vertices/POSITION",
            "bufferView": 1,
            "byteOffset": 16140,
            "componentType": 5126,
            "count": 269,
            "max": [
                321.3428649902344,
                33.68754577636719,
                242.6552734375
            ],
            "min": [
                -321.3428649902344,
                -15.93719482421875,
                -242.65478515625
            ],
            "type": "VEC3"
        },
        {
            "name": "stg1_pit_GEO_lowShape#0/vertices/TANGENT",
            "bufferView": 2,
            "byteOffset": 8608,
            "componentType": 5126,
            "count": 269,
            "max": [
                0.9988197684288024,
                0.9888972043991088,
                0.9989192485809326,
                1.0
            ],
            "min": [
                -0.9999650716781616,
                -0.8697015047073364,
                -0.9997110366821288,
                1.0
            ],
            "type": "VEC4"
        },
        {
            "name": "stg1_pit_GEO_lowShape#0/vertices/TEXCOORD_0",
            "bufferView": 3,
            "byteOffset": 4304,
            "componentType": 5126,
            "count": 269,
            "max": [
                0.9973963499069214,
                0.9939042329788208
            ],
            "min": [
                0.3508321046829224,
                0.006911336909979582
            ],
            "type": "VEC2"
        }
    ],
    "bufferViews": [
        {
            "name": "pit/data/indices-2",
            "buffer": 0,
            "byteOffset": 38736,
            "byteLength": 5256,
            "target": 34963
        },
        {
            "name": "pit/data/vertices-12",
            "buffer": 0,
            "byteOffset": 12912,
            "byteLength": 19368,
            "byteStride": 12,
            "target": 34962
        },
        {
            "name": "pit/data/vertices-16",
            "buffer": 0,
            "byteOffset": 0,
            "byteLength": 12912,
            "byteStride": 16,
            "target": 34962
        },
        {
            "name": "pit/data/vertices-8",
            "buffer": 0,
            "byteOffset": 32280,
            "byteLength": 6456,
            "byteStride": 8,
            "target": 34962
        }
    ],
    "buffers": [
        {
            "name": "pit/data",
            "byteLength": 43992,
            "uri": "pit0.bin"
        }
    ]
}
