{
    "asset": {
        "copyright": "(C)2023 post",
        "generator": "maya2glTF v1.4.0 3d7ba8eaf03e",
        "version": "2.0"
    },
    "scenes": [
        {
            "nodes": [
                6,
                4,
                0
            ]
        }
    ],
    "scene": 0,
    "nodes": [
        {
            "name": "Crate3_GRP",
            "children": [
                1
            ],
            "translation": [
                0.0,
                40.65848159790039,
                0.0
            ]
        },
        {
            "name": "Crate3_GRP:PIV",
            "children": [
                2
            ],
            "translation": [
                0.0,
                -40.65848159790039,
                0.0
            ]
        },
        {
            "name": "cratewrong2_GEO",
            "children": [
                3
            ],
            "translation": [
                0.24625205993652345,
                0.0,
                0.0
            ]
        },
        {
            "name": "cratewrong2_GEO:PIV",
            "mesh": 0,
            "translation": [
                -0.24625205993652345,
                0.0,
                0.0
            ]
        },
        {
            "name": "Crate2_GRP",
            "children": [
                5
            ]
        },
        {
            "name": "cratewrong1_GEO",
            "mesh": 1
        },
        {
            "name": "Crate1_GRP",
            "children": [
                7
            ]
        },
        {
            "name": "cratecorrect_GEO",
            "children": [
                8
            ],
            "translation": [
                -0.00001525900006527081,
                0.0,
                0.5431976318359375
            ]
        },
        {
            "name": "cratecorrect_GEO:PIV",
            "mesh": 2,
            "translation": [
                0.00001525900006527081,
                0.0,
                -0.5431976318359375
            ]
        }
    ],
    "meshes": [
        {
            "name": "cratewrong2_GEOShape",
            "extras": {
                "targetNames": []
            },
            "primitives": [
                {
                    "attributes": {
                        "NORMAL": 1,
                        "POSITION": 2,
                        "TANGENT": 3,
                        "TEXCOORD_0": 4
                    },
                    "indices": 0,
                    "mode": 4,
                    "material": 0
                }
            ]
        },
        {
            "name": "cratewrong1_GEOShape",
            "extras": {
                "targetNames": []
            },
            "primitives": [
                {
                    "attributes": {
                        "NORMAL": 6,
                        "POSITION": 7,
                        "TANGENT": 8,
                        "TEXCOORD_0": 9
                    },
                    "indices": 5,
                    "mode": 4,
                    "material": 0
                }
            ]
        },
        {
            "name": "cratecorrect_GEOShape",
            "extras": {
                "targetNames": []
            },
            "primitives": [
                {
                    "attributes": {
                        "NORMAL": 11,
                        "POSITION": 12,
                        "TANGENT": 13,
                        "TEXCOORD_0": 14
                    },
                    "indices": 10,
                    "mode": 4,
                    "material": 0
                }
            ]
        }
    ],
    "materials": [
        {
            "name": "crates_MAT",
            "pbrMetallicRoughness": {
                "baseColorFactor": [
                    0.800000011920929,
                    0.800000011920929,
                    0.800000011920929,
                    1.0
                ],
                "baseColorTexture": {
                    "index": 0
                },
                "metallicFactor": 0.0,
                "roughnessFactor": 1.0
            }
        }
    ],
    "textures": [
        {
            "sampler": 0,
            "source": 0
        }
    ],
    "images": [
        {
            "uri": "crates_colour.png"
        }
    ],
    "samplers": [
        {
            "magFilter": 9729,
            "minFilter": 9987,
            "wrapS": 10497,
            "wrapT": 10497
        }
    ],
    "accessors": [
        {
            "name": "cratewrong2_GEOShape#0/indices",
            "bufferView": 0,
            "byteOffset": 0,
            "componentType": 5123,
            "count": 480,
            "max": [
                245
            ],
            "min": [
                0
            ],
            "type": "SCALAR"
        },
        {
            "name": "cratewrong2_GEOShape#0/vertices/NORMAL",
            "bufferView": 1,
            "byteOffset": 0,
            "componentType": 5126,
            "count": 246,
            "max": [
                1.0,
                1.0,
                1.0
            ],
            "min": [
                -1.0,
                -1.0,
                -1.0
            ],
            "type": "VEC3"
        },
        {
            "name": "cratewrong2_GEOShape#0/vertices/POSITION",
            "bufferView": 1,
            "byteOffset": 2952,
            "componentType": 5126,
            "count": 246,
            "max": [
                41.555755615234378,
                82.8650131225586,
                40.844627380371097
            ],
            "min": [
                -41.06325149536133,
                1.499999946474873e-8,
                -40.844627380371097
            ],
            "type": "VEC3"
        },
        {
            "name": "cratewrong2_GEOShape#0/vertices/TANGENT",
            "bufferView": 2,
            "byteOffset": 0,
            "componentType": 5126,
            "count": 246,
            "max": [
                1.0,
                0.9990914463996888,
                0.9999845623970032,
                1.0
            ],
            "min": [
                -0.025681914761662484,
                -0.9989274144172669,
                -0.9999998211860656,
                1.0
            ],
            "type": "VEC4"
        },
        {
            "name": "cratewrong2_GEOShape#0/vertices/TEXCOORD_0",
            "bufferView": 3,
            "byteOffset": 0,
            "componentType": 5126,
            "count": 246,
            "max": [
                0.977433443069458,
                0.9878312349319458
            ],
            "min": [
                0.004596741870045662,
                0.0021727681159973146
            ],
            "type": "VEC2"
        },
        {
            "name": "cratewrong1_GEOShape#0/indices",
            "bufferView": 0,
            "byteOffset": 960,
            "componentType": 5123,
            "count": 498,
            "max": [
                257
            ],
            "min": [
                0
            ],
            "type": "SCALAR"
        },
        {
            "name": "cratewrong1_GEOShape#0/vertices/NORMAL",
            "bufferView": 1,
            "byteOffset": 5904,
            "componentType": 5126,
            "count": 258,
            "max": [
                1.0,
                1.0,
                1.0
            ],
            "min": [
                -1.0,
                -1.0,
                -1.0
            ],
            "type": "VEC3"
        },
        {
            "name": "cratewrong1_GEOShape#0/vertices/POSITION",
            "bufferView": 1,
            "byteOffset": 9000,
            "componentType": 5126,
            "count": 258,
            "max": [
                40.844627380371097,
                83.13264465332031,
                40.844627380371097
            ],
            "min": [
                -40.844627380371097,
                1.499999946474873e-8,
                -40.844627380371097
            ],
            "type": "VEC3"
        },
        {
            "name": "cratewrong1_GEOShape#0/vertices/TANGENT",
            "bufferView": 2,
            "byteOffset": 3936,
            "componentType": 5126,
            "count": 258,
            "max": [
                0.016492296010255818,
                0.9992595314979552,
                0.9999911785125732,
                1.0
            ],
            "min": [
                -1.0,
                -0.9985673427581788,
                -0.9999995231628418,
                1.0
            ],
            "type": "VEC4"
        },
        {
            "name": "cratewrong1_GEOShape#0/vertices/TEXCOORD_0",
            "bufferView": 3,
            "byteOffset": 1968,
            "componentType": 5126,
            "count": 258,
            "max": [
                0.9766640067100524,
                0.9758670926094056
            ],
            "min": [
                0.2508491575717926,
                0.1533324122428894
            ],
            "type": "VEC2"
        },
        {
            "name": "cratecorrect_GEOShape#0/indices",
            "bufferView": 0,
            "byteOffset": 1956,
            "componentType": 5123,
            "count": 498,
            "max": [
                257
            ],
            "min": [
                0
            ],
            "type": "SCALAR"
        },
        {
            "name": "cratecorrect_GEOShape#0/vertices/NORMAL",
            "bufferView": 1,
            "byteOffset": 12096,
            "componentType": 5126,
            "count": 258,
            "max": [
                1.0,
                0.9999033808708192,
                1.0
            ],
            "min": [
                -1.0,
                -1.0,
                -1.0
            ],
            "type": "VEC3"
        },
        {
            "name": "cratecorrect_GEOShape#0/vertices/POSITION",
            "bufferView": 1,
            "byteOffset": 15192,
            "componentType": 5126,
            "count": 258,
            "max": [
                40.84461975097656,
                82.9971694946289,
                40.844627380371097
            ],
            "min": [
                -40.84465026855469,
                1.499999946474873e-8,
                -39.75823211669922
            ],
            "type": "VEC3"
        },
        {
            "name": "cratecorrect_GEOShape#0/vertices/TANGENT",
            "bufferView": 2,
            "byteOffset": 8064,
            "componentType": 5126,
            "count": 258,
            "max": [
                0.004152719862759113,
                0.9816067218780518,
                0.9999995231628418,
                1.0
            ],
            "min": [
                -0.9999999403953552,
                -0.998759925365448,
                -1.0,
                1.0
            ],
            "type": "VEC4"
        },
        {
            "name": "cratecorrect_GEOShape#0/vertices/TEXCOORD_0",
            "bufferView": 3,
            "byteOffset": 4032,
            "componentType": 5126,
            "count": 258,
            "max": [
                0.9791905879974364,
                0.9954427480697632
            ],
            "min": [
                0.4965728521347046,
                0.047965824604034427
            ],
            "type": "VEC2"
        }
    ],
    "bufferViews": [
        {
            "name": "crates/data/indices-2",
            "buffer": 0,
            "byteOffset": 36576,
            "byteLength": 2952,
            "target": 34963
        },
        {
            "name": "crates/data/vertices-12",
            "buffer": 0,
            "byteOffset": 12192,
            "byteLength": 18288,
            "byteStride": 12,
            "target": 34962
        },
        {
            "name": "crates/data/vertices-16",
            "buffer": 0,
            "byteOffset": 0,
            "byteLength": 12192,
            "byteStride": 16,
            "target": 34962
        },
        {
            "name": "crates/data/vertices-8",
            "buffer": 0,
            "byteOffset": 30480,
            "byteLength": 6096,
            "byteStride": 8,
            "target": 34962
        }
    ],
    "buffers": [
        {
            "name": "crates/data",
            "byteLength": 39528,
            "uri": "crates0.bin"
        }
    ]
}
